<svg width="50" height="50" viewBox="0 0 50 50" fill="none" xmlns="http://www.w3.org/2000/svg">
<g clip-path="url(#clip0_1_289)">
<path d="M0 24.9999C0 11.1928 11.1928 0 24.9999 0C38.807 0 49.9998 11.1928 50.0001 24.9999C50.0001 38.807 38.8073 49.9998 24.9999 50.0001C11.1928 50.0001 0 38.8073 0 24.9999ZM24.9999 48.1159C37.7666 48.1159 48.1159 37.7666 48.1159 24.9999C48.1159 12.2332 37.7666 1.88384 24.9999 1.88415C12.2332 1.88415 1.88384 12.2335 1.88415 24.9999C1.88415 37.7666 12.2335 48.1159 24.9999 48.1159Z" fill="#247CFF"/>
<g clip-path="url(#clip1_1_289)">
<g clip-path="url(#clip2_1_289)">
<path fill-rule="evenodd" clip-rule="evenodd" d="M33.9947 30.097C32.631 19.5914 17.2836 17.5249 16.0054 29.5589C18.3485 31.5832 21.7241 32.6794 24.4008 34.405C27.8791 33.2207 31.6937 32.3378 33.9947 30.097Z" fill="#247CFF"/>
<path fill-rule="evenodd" clip-rule="evenodd" d="M25.1339 20.8313C27.3224 20.7716 29.0817 19.2593 29.6058 17.3917C30.1161 15.5701 29.4385 13.8185 28.524 12.8211C27.7424 11.9688 26.242 11.2058 24.6426 11.3474C23.3289 11.4638 22.1933 12.0672 21.4975 12.8211C20.8132 13.5626 20.2196 14.7649 20.2196 16.0646C20.2196 18.7528 22.2829 20.9093 25.1339 20.8313Z" fill="#247CFF"/>
<path fill-rule="evenodd" clip-rule="evenodd" d="M37.0839 30.4927C33.406 32.8256 26.8729 32.9953 25 36.6958C23.1271 32.9953 16.5944 32.8252 12.9161 30.4927V32.2939C13.3621 32.4098 14.1233 32.6193 15.0392 32.9121C14.9872 32.9653 14.9475 33.0292 14.9229 33.0994C14.7654 33.5865 15.4044 34.23 16.3501 34.5354C17.2962 34.8419 18.1914 34.695 18.3488 34.2078C18.3548 34.1892 18.3572 34.1706 18.3611 34.1516C20.7858 35.2109 23.1461 36.6634 23.629 38.4302C23.6508 38.5106 23.6743 38.5901 23.6975 38.6695H26.3032C26.3264 38.5901 26.3496 38.511 26.3714 38.4302C26.8462 36.6947 29.1316 35.2625 31.5099 34.2086C31.6765 34.6858 32.5597 34.8338 33.4991 34.5379C34.448 34.2384 35.0912 33.6002 34.9376 33.1117C34.9178 33.0523 34.8875 32.997 34.8483 32.9483C35.5872 32.7092 36.3327 32.491 37.0839 32.2939V30.4927Z" fill="#247CFF"/>
</g>
</g>
</g>
<defs>
<clipPath id="clip0_1_289">
<rect width="50" height="50" fill="white"/>
</clipPath>
<clipPath id="clip1_1_289">
<rect width="24.1678" height="27.3391" fill="white" transform="translate(12.9161 11.3304)"/>
</clipPath>
<clipPath id="clip2_1_289">
<rect width="24.1678" height="27.3391" fill="white" transform="translate(12.9161 11.3304)"/>
</clipPath>
</defs>
</svg>
